<svg width="720" height="560" viewBox="0 0 720 560" xmlns="http://www.w3.org/2000/svg">
  <rect width="720" height="560" fill="#F3F7FC"/>
  <path d="M0 420C118 350 244 336 376 394C496 447 606 440 720 368V560H0V420Z" fill="#063F8F"/>
  <path d="M64 448C174 396 288 388 402 433C516 478 613 468 720 410" fill="none" stroke="#20A33A" stroke-width="28" stroke-linecap="round"/>
  <path d="M100 482C224 424 328 424 442 463C545 498 630 492 720 446" fill="none" stroke="#F4B227" stroke-width="20" stroke-linecap="round"/>
  <rect x="208" y="116" width="304" height="250" rx="18" fill="#FFFFFF" stroke="#D6E1EE" stroke-width="4"/>
  <rect x="250" y="160" width="220" height="38" rx="8" fill="#063F8F"/>
  <rect x="250" y="222" width="162" height="22" rx="7" fill="#20A33A"/>
  <rect x="250" y="266" width="118" height="22" rx="7" fill="#F4B227"/>
  <text x="360" y="331" text-anchor="middle" font-family="Arial" font-size="38" font-weight="800" fill="#202838">SKU 01</text>
</svg>
